<svg width="351" height="60" viewBox="0 0 351 60" fill="none" xmlns="http://www.w3.org/2000/svg">
<g clip-path="url(#clip0_55555_66152)">
<path d="M59.9569 27.1907V30C59.9569 46.567 46.467 60.0389 29.9008 60C13.4678 59.9584 0.0417059 46.5226 9.61788e-05 30.0777C-0.0415135 13.4968 13.4234 0 29.9785 0C37.6707 0 44.9802 2.90923 50.5698 8.19469C51.3354 8.92477 52.0705 9.69372 52.7529 10.4876C52.8777 10.6348 52.9387 10.8152 52.9387 10.9957C52.9387 11.2177 52.8472 11.437 52.6641 11.5925L47.9761 15.6121C47.6488 15.8925 47.1522 15.8564 46.8693 15.5288C46.3589 14.9348 45.8152 14.3601 45.2465 13.8244C41.1022 9.90469 35.679 7.74776 29.9757 7.74776C17.7147 7.74776 7.7395 17.7302 7.7395 30C7.7395 42.2698 17.7147 52.2522 29.9757 52.2522C40.7582 52.2522 50.0205 44.4129 51.8763 33.8725H46.6224C46.9109 32.6288 47.0634 31.3325 47.0634 30C47.0634 28.6675 46.9109 27.3684 46.6196 26.1247H58.8917C59.4798 26.1247 59.9569 26.6022 59.9569 27.1907Z" fill="white"/>
<path d="M36.722 36.4708C35.0188 38.2446 32.6276 39.355 29.9785 39.355C26.9216 39.355 24.2031 37.8782 22.4943 35.5991C22.0921 35.0633 21.7481 34.4859 21.4679 33.8724H19.4429C17.3985 33.8724 15.7424 35.5297 15.7424 37.5756V39.4494C15.8035 39.541 15.8645 39.6298 15.9255 39.7214C19.0157 44.1769 24.1615 47.1 29.9785 47.1C34.2421 47.1 38.1451 45.5288 41.1438 42.936C44.7694 39.7992 47.0662 35.1633 47.0662 30.0027C47.0662 20.5727 39.3989 12.9027 29.9785 12.9027C27.5069 12.9027 25.0963 13.4301 22.8854 14.4434C22.3972 14.6682 22.228 15.2789 22.5331 15.7231L26.0422 20.7976C26.2586 21.1113 26.6553 21.2501 27.0159 21.1279C27.9618 20.8115 28.9604 20.6477 29.9785 20.6477C35.1326 20.6477 39.3268 24.845 39.3268 30.0027C39.3268 32.5122 38.3337 34.7913 36.7193 36.4708" fill="url(#paint0_linear_55555_66152)"/>
<path d="M16.7606 26.1276H27.7927C28.12 26.1276 28.4252 26.2886 28.6082 26.5606L32.5279 32.3319C32.9717 32.987 32.5029 33.8725 31.7123 33.8725H21.4708H19.4458C17.4014 33.8725 15.7453 35.5298 15.7453 37.5757V39.4495C13.9422 36.7401 12.8909 33.4867 12.8909 29.9945C12.8909 27.8598 14.6274 26.1303 16.7606 26.1303V26.1276Z" fill="#FC9D74"/>
<path d="M86.8866 43.83C88.4968 43.83 89.8021 42.5237 89.8021 40.9124C89.8021 39.3011 88.4968 37.9949 86.8866 37.9949C85.2765 37.9949 83.9712 39.3011 83.9712 40.9124C83.9712 42.5237 85.2765 43.83 86.8866 43.83Z" fill="url(#paint1_linear_55555_66152)"/>
<path d="M100.965 43.8299H95.4445L92.9202 38.897L86.8868 27.0575L80.8534 38.897L78.3291 43.8299H72.8088L75.3332 38.897L86.8868 16.2062L98.4404 38.897L100.965 43.8299ZM104.396 30.0194C104.396 34.9135 108.38 38.897 113.267 38.897H127.068V43.8299H113.267C105.656 43.8299 99.4668 37.634 99.4668 30.0194C99.4668 22.4049 105.658 16.209 113.267 16.209H127.068V21.1419H113.267C108.377 21.1419 104.396 25.1282 104.396 30.0194ZM133.811 30.0194C133.811 34.9135 137.795 38.897 142.683 38.897H156.483V43.8299H142.683C135.074 43.8299 128.882 37.634 128.882 30.0194C128.882 22.4049 135.074 16.209 142.683 16.209H156.483V21.1419H142.683C137.792 21.1419 133.811 25.1282 133.811 30.0194ZM185.349 30.0194C185.349 37.6367 179.158 43.8299 171.549 43.8299C163.94 43.8299 157.748 37.634 157.748 30.0194C157.748 22.4049 163.94 16.209 171.549 16.209C179.158 16.209 185.349 22.4049 185.349 30.0194ZM180.42 30.0194C180.42 25.1254 176.436 21.1419 171.549 21.1419C166.661 21.1419 162.677 25.1282 162.677 30.0194C162.677 34.9107 166.661 38.897 171.549 38.897C176.436 38.897 180.42 34.9107 180.42 30.0194ZM215.949 16.209V30.0194C215.949 37.6367 209.757 43.8299 202.148 43.8299C194.539 43.8299 188.348 37.634 188.348 30.0194V16.209H193.277V30.0194C193.277 34.9135 197.261 38.897 202.148 38.897C207.036 38.897 211.02 34.9107 211.02 30.0194V16.209H215.949ZM247.495 16.2478V43.8716L242.565 40.0824L224.82 26.3885V43.8688H219.891V16.3283L224.82 20.1175L242.565 33.8114V16.209L247.495 16.2478ZM279.002 16.2478V21.1807H267.684V43.8716H262.754V21.1807H251.436V16.2478H278.999H279.002ZM282.985 43.8299V16.209H287.914V43.8327H282.985V43.8299ZM319.46 16.2478V43.8716L314.531 40.0824L296.786 26.3885V43.8688H291.856V16.3283L296.786 20.1175L314.531 33.8114V16.209L319.46 16.2478ZM328.331 30.0194C328.331 34.9135 332.315 38.897 337.202 38.897H346.074V33.6088H337.202V28.6759H351.003V43.8299H337.202C329.591 43.8299 323.402 37.634 323.402 30.0194C323.402 22.4049 329.593 16.209 337.202 16.209H351.003V21.1419H337.202C332.312 21.1419 328.331 25.1282 328.331 30.0194Z" fill="white"/>
</g>
<defs>
<linearGradient id="paint0_linear_55555_66152" x1="17.4096" y1="27.782" x2="46.8095" y2="32.963" gradientUnits="userSpaceOnUse">
<stop stop-color="#DB5A00"/>
<stop offset="0.12" stop-color="#FF9966"/>
</linearGradient>
<linearGradient id="paint1_linear_55555_66152" x1="86.899" y1="45.5793" x2="86.8992" y2="40.2371" gradientUnits="userSpaceOnUse">
<stop stop-color="#DB6A42"/>
<stop offset="1" stop-color="#FF9966"/>
</linearGradient>
<clipPath id="clip0_55555_66152">
<rect width="351" height="60" fill="white"/>
</clipPath>
</defs>
</svg>
