<svg width="171" height="60" viewBox="0 0 171 60" fill="none" xmlns="http://www.w3.org/2000/svg">
<g clip-path="url(#clip0_55555_66054)">
<path d="M59.9037 27.1907V30C59.9037 46.567 46.4258 60.0389 29.8743 60C13.4558 59.9584 0.0416689 46.5226 9.60935e-05 30.0777C-0.0414767 13.4968 13.4115 0 29.9519 0C37.6373 0 44.9403 2.90923 50.5249 8.19469C51.2898 8.92477 52.0243 9.69372 52.7061 10.4876C52.8308 10.6348 52.8918 10.8152 52.8918 10.9957C52.8918 11.2177 52.8003 11.437 52.6174 11.5925L47.9335 15.6121C47.6065 15.8925 47.1104 15.8564 46.8277 15.5288C46.3177 14.9348 45.7745 14.3601 45.2064 13.8244C41.0657 9.90469 35.6474 7.74776 29.9491 7.74776C17.699 7.74776 7.73264 17.7302 7.73264 30C7.73264 42.2698 17.699 52.2522 29.9491 52.2522C40.722 52.2522 49.9761 44.4129 51.8303 33.8725H46.581C46.8693 32.6288 47.0217 31.3325 47.0217 30C47.0217 28.6675 46.8693 27.3684 46.5783 26.1247H58.8395C59.427 26.1247 59.9037 26.6022 59.9037 27.1907Z" fill="#003A4D"/>
<path d="M36.6895 36.4708C34.9878 38.2446 32.5988 39.355 29.952 39.355C26.8977 39.355 24.1817 37.8782 22.4744 35.5991C22.0725 35.0633 21.7289 34.4859 21.4489 33.8724H19.4257C17.3831 33.8724 15.7285 35.5297 15.7285 37.5756V39.4494C15.7895 39.541 15.8505 39.6298 15.9114 39.7214C18.9989 44.1769 24.1401 47.1 29.952 47.1C34.2118 47.1 38.1113 45.5288 41.1073 42.936C44.7297 39.7992 47.0245 35.1633 47.0245 30.0027C47.0245 20.5727 39.364 12.9027 29.952 12.9027C27.4825 12.9027 25.0741 13.4301 22.8652 14.4434C22.3774 14.6682 22.2083 15.2789 22.5132 15.7231L26.0192 20.7976C26.2353 21.1113 26.6317 21.2501 26.992 21.1279C27.9371 20.8115 28.9348 20.6477 29.952 20.6477C35.1014 20.6477 39.292 24.845 39.292 30.0027C39.292 32.5122 38.2998 34.7913 36.6867 36.4708" fill="url(#paint0_linear_55555_66054)"/>
<path d="M16.7457 26.1276H27.768C28.095 26.1276 28.3999 26.2886 28.5828 26.5606L32.499 32.3319C32.9424 32.987 32.474 33.8725 31.6842 33.8725H21.4517H19.4285C17.3859 33.8725 15.7313 35.5298 15.7313 37.5757V39.4495C13.9298 36.7401 12.8794 33.4867 12.8794 29.9945C12.8794 27.8598 14.6144 26.1303 16.7457 26.1303V26.1276Z" fill="#FC9D74"/>
<path d="M101.898 16.209V21.1419H81.7654C80.3852 21.1419 79.2434 22.2856 79.2434 23.668V26.233H96.9728V31.166H79.2045V43.8327H74.3184V23.668C74.3184 19.5651 77.6276 16.209 81.7239 16.209H101.895H101.898ZM105.797 43.8327V16.209H110.722V43.8327H105.797ZM136.921 38.9803L139.444 43.9133H133.928L131.406 38.9803L128.768 33.8115L128.648 33.5755C127.781 32.1542 126.246 31.2076 124.472 31.2076H119.547V43.9133H114.622V16.2867H132.035C134.083 16.2867 135.935 17.114 137.276 18.4575C138.615 19.7983 139.444 21.6527 139.444 23.7069C139.444 26.705 137.67 29.3116 135.109 30.4942C134.438 30.8106 133.729 31.0077 132.98 31.0855L136.919 38.9776L136.921 38.9803ZM132.035 26.2747C132.39 26.2747 132.745 26.197 133.061 26.0387C133.967 25.6445 134.557 24.7368 134.557 23.7485C134.557 22.8408 134.083 22.2107 133.809 21.9331C133.493 21.6166 132.903 21.2224 132.035 21.2224H119.547V26.3135L132.035 26.2747ZM171 16.2118V43.8355H166.075V26.2358L161.228 29.9445L157.209 33.0619L153.19 29.9445L148.343 26.2358V43.8355H143.418V16.209L148.343 19.9982L157.206 26.8243L166.07 19.9982L170.995 16.209L171 16.2118Z" fill="#003A4D"/>
</g>
<defs>
<linearGradient id="paint0_linear_55555_66054" x1="17.3942" y1="27.782" x2="46.7696" y2="32.9541" gradientUnits="userSpaceOnUse">
<stop stop-color="#DB5A00"/>
<stop offset="0.12" stop-color="#FF9966"/>
</linearGradient>
<clipPath id="clip0_55555_66054">
<rect width="171" height="60" fill="white"/>
</clipPath>
</defs>
</svg>
