<svg width="302" height="60" viewBox="0 0 302 60" fill="none" xmlns="http://www.w3.org/2000/svg">
<g clip-path="url(#clip0_55555_66142)">
<path d="M79.3013 29.9861C79.3013 34.8727 83.2969 38.8709 88.1804 38.8709H97.0595V33.5956H88.1804V28.6534H101.998V43.813H88.1804C80.5777 43.813 74.3623 37.6215 74.3623 29.9861C74.3623 22.3508 80.5499 16.1592 88.1804 16.1592H101.998V21.1013H88.1804C83.2691 21.1013 79.3013 25.0995 79.3013 29.9861ZM128.663 38.8987V43.8408H114.651C113.264 43.8408 111.96 43.5354 110.794 42.9246C109.046 42.0639 107.631 40.6478 106.799 38.8987C106.216 37.7048 105.883 36.3998 105.883 35.0393V16.2147H110.822V35.5113C111.072 37.2605 112.431 38.621 114.179 38.8709L128.663 38.8987ZM186.849 35.0116C186.849 39.8704 182.909 43.813 178.053 43.813H159.241V16.1592H176.638C180.745 16.1592 184.102 19.5187 184.102 23.6279C184.102 25.1272 183.658 26.5155 182.909 27.6539C185.268 29.2365 186.849 31.9297 186.849 35.0116ZM164.18 26.1546H176.694C178.081 26.1546 179.219 25.0162 179.219 23.6279C179.219 22.2397 178.081 21.1013 176.694 21.1013H164.18V26.1546ZM178.053 38.8709C180.19 38.8709 181.91 37.0939 181.91 34.956C181.91 32.8181 180.162 31.0967 178.053 31.0967H164.18V38.8709H178.053ZM216.4 43.813H210.878L208.353 38.8709L202.304 27.043L196.283 38.8709L193.758 43.813H188.237L190.762 38.8709L202.304 16.1869L213.875 38.8709L216.4 43.813ZM240.484 38.8987V43.8408H226.472C225.085 43.8408 223.781 43.5354 222.615 42.9246C220.867 42.0639 219.452 40.6478 218.62 38.8987C218.037 37.7048 217.704 36.3998 217.704 35.0393V16.2147H222.643V35.5113C222.893 37.2605 224.252 38.621 226 38.8709L240.484 38.8987ZM142.426 16.1592C134.796 16.1592 128.608 22.3508 128.608 29.9861C128.608 37.6215 134.796 43.813 142.426 43.813C150.057 43.813 156.244 37.6215 156.244 29.9861C156.244 22.3508 150.057 16.1592 142.426 16.1592ZM142.426 42.2304C135.684 42.2304 130.217 36.7608 130.217 30.0139C130.217 23.267 135.684 17.7973 142.426 17.7973C149.169 17.7973 154.635 23.267 154.635 30.0139C154.635 36.7608 149.169 42.2304 142.426 42.2304Z" fill="white"/>
<path d="M142.426 19.4077C136.571 19.4077 131.827 24.1555 131.827 30.0139C131.827 35.8723 136.571 40.6201 142.426 40.6201C148.281 40.6201 153.025 35.8723 153.025 30.0139C153.025 24.1555 148.281 19.4077 142.426 19.4077ZM142.426 37.8436C138.098 37.8436 134.601 34.3452 134.601 30.0139C134.601 25.6825 138.098 22.1841 142.426 22.1841C146.755 22.1841 150.251 25.6825 150.251 30.0139C150.251 34.3452 146.755 37.8436 142.426 37.8436Z" fill="#FC9D74"/>
<path d="M202.277 43.8408C203.886 43.8408 205.19 42.5356 205.19 40.9255C205.19 39.3154 203.886 38.0102 202.277 38.0102C200.668 38.0102 199.363 39.3154 199.363 40.9255C199.363 42.5356 200.668 43.8408 202.277 43.8408Z" fill="url(#paint0_linear_55555_66142)"/>
<path d="M274.225 17.5752C274.225 17.8529 274.142 18.1027 274.003 18.3526L270.257 24.0167C267.732 24.5997 265.568 26.1268 264.153 28.2092L271.645 16.7978C272.061 16.1592 272.949 15.9648 273.587 16.4091C274.003 16.6867 274.225 17.131 274.225 17.5752Z" fill="#FC9D74"/>
<path d="M286.6 22.8783C285.823 23.2948 285.13 23.7945 284.464 24.3498V17.5752C284.464 16.9088 284.935 16.3258 285.574 16.2147C285.657 16.187 285.768 16.187 285.851 16.187H300.585C301.362 16.187 301.972 16.8255 301.972 17.5752C301.972 18.3526 301.334 18.9634 300.585 18.9634H287.266V22.5451C287.044 22.6562 286.822 22.7672 286.6 22.8783ZM292.205 23.7945C292.122 23.7945 292.039 23.7945 291.983 23.7945C290.318 23.7945 288.709 24.211 287.294 24.9607C286.434 25.4327 285.629 26.0157 284.908 26.7376C284.63 27.0153 284.491 27.3485 284.491 27.7094C284.491 27.9315 284.547 28.1536 284.658 28.3758C284.908 28.82 285.379 29.1254 285.879 29.1254C286.24 29.1254 286.6 28.9866 286.878 28.7089C287.016 28.5701 287.155 28.459 287.294 28.3202C288.598 27.1819 290.263 26.571 292.011 26.571C296.007 26.571 299.253 29.8195 299.253 33.8177C299.253 37.8158 296.007 41.0643 292.011 41.0643C289.458 41.0643 287.044 39.6761 285.768 37.4826L281.522 29.5141C281.411 29.292 280.801 28.2647 280.801 28.2369C278.914 25.4604 275.834 23.7945 272.505 23.7945C266.983 23.7945 262.488 28.2925 262.488 33.8177C262.488 33.901 262.488 33.9843 262.488 34.0676C262.627 39.4262 266.9 43.7298 272.283 43.8408C272.366 43.8408 272.449 43.8408 272.505 43.8408C275.168 43.8408 277.693 42.7857 279.58 40.8977C280.024 40.4535 280.107 39.8149 279.83 39.2596C279.58 38.8154 279.108 38.5099 278.609 38.5099C278.248 38.5099 277.888 38.6488 277.61 38.9264C276.916 39.6205 276.14 40.1481 275.252 40.509C274.391 40.87 273.448 41.0643 272.477 41.0643C270.535 41.0643 268.703 40.3147 267.344 38.9542C265.984 37.5937 265.235 35.7612 265.235 33.8177C265.235 29.8195 268.481 26.571 272.477 26.571C275.03 26.571 277.444 27.9593 278.72 30.1527L282.965 38.1212C283.076 38.3434 283.687 39.3707 283.687 39.3984C285.574 42.1749 288.654 43.8408 291.983 43.8408C297.505 43.8408 302 39.3429 302 33.8177C302 33.7344 302 33.6511 302 33.5678C301.861 28.2092 297.588 23.9056 292.205 23.7945ZM253.026 24.9607L258.603 19.0467C258.909 18.7413 259.075 18.3249 259.075 17.8806C259.075 16.9366 258.298 16.187 257.382 16.187H246.062C245.34 16.187 244.73 16.77 244.73 17.5197C244.73 18.2693 245.312 18.8524 246.062 18.8524H246.95H247.033H255.19L249.752 24.5997C249.447 24.9329 249.28 25.3494 249.28 25.8214C249.28 26.7932 250.057 27.5706 251.028 27.5706H251.278C253.22 27.5706 254.857 28.1814 256.217 29.4586C257.577 30.7358 258.243 32.2906 258.243 34.2341C258.243 36.2055 257.577 37.8158 256.217 39.1763C254.885 40.509 253.22 41.2031 251.278 41.2031C249.031 41.2031 246.894 40.0648 245.562 38.1768C245.285 37.7881 244.869 37.5659 244.425 37.5659C244.147 37.5659 243.87 37.6492 243.648 37.8158C243.342 38.0379 243.148 38.3434 243.065 38.7043C243.009 39.0652 243.065 39.454 243.287 39.7594C245.09 42.3693 248.087 43.8963 251.278 43.8963C253.97 43.8963 256.273 42.9246 258.159 41.0366C260.046 39.1763 261.017 36.8996 261.017 34.2064C261.017 31.7075 260.157 29.5419 258.492 27.7927C256.994 26.2101 255.163 25.2938 253.026 24.9607Z" fill="white"/>
<path d="M59.9618 27.2096V30.0139C59.9618 46.5895 46.4767 60.0555 29.9116 60.0278C13.4575 59.9722 0.055665 46.534 0.000170667 30.0694C-0.0553236 13.4938 13.4298 0 29.9948 0C37.6808 0 45.0061 2.91532 50.5832 8.19065C51.3601 8.91254 52.0816 9.68996 52.7752 10.4951C52.914 10.634 52.9695 10.8283 52.9695 10.9949C52.9695 11.217 52.8862 11.4391 52.692 11.6057L48.0027 15.6039C47.6698 15.8815 47.1703 15.8538 46.8929 15.5206C46.3934 14.9375 45.8385 14.3545 45.2835 13.8269C41.1492 9.91208 35.7108 7.74641 30.0226 7.74641C17.7583 7.74641 7.76937 17.7418 7.76937 30.0139C7.76937 42.286 17.7583 52.2813 30.0226 52.2813C40.8162 52.2813 50.0838 44.4516 51.9151 33.901H46.6709C46.9483 32.6515 47.1148 31.3466 47.1148 30.0416C47.1148 28.7367 46.9761 27.404 46.6709 26.1546H58.9351C59.4901 26.1268 59.9618 26.5988 59.9618 27.2096Z" fill="white"/>
<path d="M36.7373 36.4831C35.0448 38.2601 32.6308 39.3707 29.9948 39.3707C26.9426 39.3707 24.2234 37.8991 22.5031 35.6224C22.1146 35.0949 21.7539 34.5118 21.4764 33.901H19.4509C17.3976 33.901 15.7605 35.5669 15.7605 37.5937V39.4817C15.816 39.565 15.8715 39.6761 15.9547 39.7594C19.0347 44.2295 24.1956 47.1449 30.0225 47.1449C34.2956 47.1449 38.1802 45.5623 41.1769 42.9801C44.8118 39.8427 47.1148 35.2059 47.1148 30.0417C47.1148 20.6016 39.4566 12.9385 30.0225 12.9385C27.553 12.9385 25.139 13.466 22.9193 14.4655C22.4198 14.6877 22.2533 15.2985 22.5586 15.7427L26.0547 20.8237C26.2767 21.1291 26.6651 21.268 27.0258 21.1569C27.9692 20.8515 28.9681 20.6849 29.9948 20.6849C35.1558 20.6849 39.3456 24.8774 39.3456 30.0417C39.3456 32.5127 38.3467 34.7895 36.7373 36.4831Z" fill="url(#paint1_linear_55555_66142)"/>
<path d="M16.7594 26.1268H27.8028C28.1358 26.1268 28.441 26.2934 28.6075 26.571L32.5198 32.3461C32.9638 33.0125 32.4921 33.9009 31.7152 33.9009H21.4765H19.4509C17.3976 33.9009 15.7605 35.5668 15.7605 37.5937V39.4817C13.957 36.7607 12.9026 33.5122 12.9026 30.0139C12.9026 27.8482 14.6229 26.1268 16.7594 26.1268Z" fill="#FC9D74"/>
</g>
<defs>
<linearGradient id="paint0_linear_55555_66142" x1="202.23" y1="45.5232" x2="202.23" y2="40.1792" gradientUnits="userSpaceOnUse">
<stop stop-color="#DB6A42"/>
<stop offset="1" stop-color="#FF9966"/>
</linearGradient>
<linearGradient id="paint1_linear_55555_66142" x1="17.4154" y1="27.7873" x2="46.8231" y2="32.9693" gradientUnits="userSpaceOnUse">
<stop stop-color="#DB5A00"/>
<stop offset="0.1201" stop-color="#FF9966"/>
</linearGradient>
<clipPath id="clip0_55555_66142">
<rect width="302" height="60" fill="white"/>
</clipPath>
</defs>
</svg>
