<svg width="316" height="60" viewBox="0 0 316 60" fill="none" xmlns="http://www.w3.org/2000/svg">
<path d="M60.0472 27.1907V30C60.0472 46.567 46.537 60.0388 29.9458 59.9999C13.488 59.9583 0.0417687 46.5226 9.63236e-05 30.0777C-0.041576 13.4968 13.4436 0 30.0236 0C37.7275 0 45.0479 2.90922 50.6459 8.19468C51.4127 8.92476 52.1489 9.6937 52.8323 10.4876C52.9573 10.6348 53.0184 10.8152 53.0184 10.9956C53.0184 11.2177 52.9268 11.437 52.7434 11.5925L48.0483 15.6121C47.7205 15.8925 47.2232 15.8564 46.9398 15.5288C46.4286 14.9347 45.8841 14.3601 45.3146 13.8244C41.164 9.90468 35.7327 7.74775 30.0209 7.74775C17.7414 7.74775 7.75115 17.7302 7.75115 30C7.75115 42.2698 17.7414 52.2522 30.0209 52.2522C40.8195 52.2522 50.0958 44.4128 51.9544 33.8724H46.6926C46.9815 32.6288 47.1343 31.3324 47.1343 30C47.1343 28.6675 46.9815 27.3683 46.6898 26.1247H58.9804C59.5693 26.1247 60.0472 26.6022 60.0472 27.1907Z" fill="#003A4D"/>
<path d="M36.7773 36.4707C35.0715 38.2446 32.6768 39.355 30.0236 39.355C26.9621 39.355 24.2395 37.8782 22.5281 35.5991C22.1253 35.0633 21.7808 34.4859 21.5002 33.8724H19.4722C17.4247 33.8724 15.7661 35.5297 15.7661 37.5756V39.4494C15.8272 39.541 15.8884 39.6298 15.9495 39.7214C19.0443 44.1768 24.1978 47.0999 30.0236 47.0999C34.2936 47.0999 38.2025 45.5287 41.2057 42.936C44.8367 39.7991 47.1371 35.1632 47.1371 30.0027C47.1371 20.5727 39.4582 12.9027 30.0236 12.9027C27.5483 12.9027 25.1341 13.4301 22.9199 14.4434C22.4309 14.6682 22.2614 15.2789 22.567 15.7231L26.0814 20.7976C26.2981 21.1113 26.6954 21.2501 27.0565 21.1279C28.0039 20.8115 29.004 20.6477 30.0236 20.6477C35.1854 20.6477 39.386 24.845 39.386 30.0027C39.386 32.5122 38.3914 34.7913 36.7745 36.4707" fill="url(#paint0_linear_55555_66060)"/>
<path d="M16.7857 26.1274H27.8344C28.1622 26.1274 28.4678 26.2884 28.6512 26.5605L32.5767 32.3317C33.0212 32.9869 32.5517 33.8724 31.7599 33.8724H21.503H19.4749C17.4274 33.8724 15.7689 35.5297 15.7689 37.5756V39.4493C13.9631 36.74 12.9102 33.4865 12.9102 29.9944C12.9102 27.8596 14.6493 26.1302 16.7857 26.1302V26.1274Z" fill="#FC9D74"/>
<path d="M240.365 43.5896C241.977 43.5896 243.284 42.2848 243.284 40.6753C243.284 39.0659 241.977 37.7611 240.365 37.7611C238.753 37.7611 237.447 39.0659 237.447 40.6753C237.447 42.2848 238.753 43.5896 240.365 43.5896Z" fill="url(#paint1_linear_55555_66060)"/>
<path d="M100.744 16V43.5923H95.809V26.0126L90.9548 29.7171L86.9282 32.831L82.9016 29.7171L78.0474 26.0126V43.5923H73.1099V16L78.0446 19.7849L86.9254 26.6033L95.8063 19.7849L100.744 16ZM109.625 23.4506V26.0126H127.389V30.9399H109.625V36.1418C109.625 37.5226 110.769 38.665 112.152 38.665H132.324V43.5923H112.152C108.047 43.5923 104.732 40.2428 104.732 36.1418V23.4506C104.732 19.3523 108.047 16 112.152 16H132.324V20.9273H112.152C110.769 20.9273 109.625 22.0697 109.625 23.4506ZM158.575 38.7427L161.102 43.67H155.576L153.049 38.7427L150.405 33.5797L150.285 33.344C149.416 31.9243 147.878 30.9788 146.1 30.9788H141.166V43.67H136.231V16.0776H153.679C155.731 16.0776 157.586 16.9039 158.93 18.246C160.271 19.5853 161.102 21.4375 161.102 23.4894C161.102 26.484 159.325 29.0877 156.759 30.2689C156.087 30.585 155.376 30.7819 154.626 30.8595L158.572 38.7427H158.575ZM153.679 26.0515C154.034 26.0515 154.39 25.9738 154.706 25.8158C155.614 25.422 156.206 24.5153 156.206 23.5282C156.206 22.6215 155.731 21.9921 155.456 21.7148C155.14 21.3987 154.548 21.0049 153.679 21.0049H141.166V26.0903L153.679 26.0515ZM169.627 29.7948C169.627 34.6833 173.615 38.6623 178.508 38.6623H192.324V43.5896H178.508C170.891 43.5896 164.692 37.4006 164.692 29.7948C164.692 22.1889 170.888 16 178.508 16H192.324V20.9273H178.508C173.612 20.9273 169.627 24.9091 169.627 29.7948ZM223.904 16V43.5923H218.969V30.9399H201.204V43.5923H196.27V16H201.204V26.0126H218.969V16H223.904ZM254.456 43.5923H248.93L246.403 38.665L240.363 26.839L234.323 38.665L231.796 43.5923H226.27L228.797 38.665L240.366 16L251.932 38.665L254.459 43.5923H254.456ZM284.459 16.0388V43.6311L279.524 39.8462L261.76 26.1679V43.6284H256.825V16.1192L261.76 19.9041L279.524 33.5824V16L284.459 16.0388ZM316 16.0388V20.9661H304.67V43.6311H299.735V20.9661H288.405V16.0388H315.997H316Z" fill="#003A4D"/>
<defs>
<linearGradient id="paint0_linear_55555_66060" x1="17.4358" y1="27.7819" x2="46.8773" y2="32.9781" gradientUnits="userSpaceOnUse">
<stop stop-color="#DB5A00"/>
<stop offset="0.12" stop-color="#FF9966"/>
</linearGradient>
<linearGradient id="paint1_linear_55555_66060" x1="240.398" y1="45.3173" x2="240.398" y2="39.9785" gradientUnits="userSpaceOnUse">
<stop stop-color="#DB6A42"/>
<stop offset="1" stop-color="#FF9966"/>
</linearGradient>
</defs>
</svg>
