<svg width="260" height="60" viewBox="0 0 260 60" fill="none" xmlns="http://www.w3.org/2000/svg">
<g clip-path="url(#clip0_55555_66160)">
<path d="M60.0955 27.1907V30C60.0955 46.567 46.5744 60.0389 29.9699 60C13.4989 59.9584 0.0418023 46.5226 9.64011e-05 30.0777C-0.0416095 13.4968 13.4544 0 30.0478 0C37.7578 0 45.0842 2.90923 50.6866 8.19469C51.454 8.92477 52.1908 9.69372 52.8748 10.4876C52.9999 10.6348 53.0611 10.8152 53.0611 10.9957C53.0611 11.2177 52.9693 11.437 52.7858 11.5925L48.087 15.6121C47.7589 15.8925 47.2612 15.8564 46.9776 15.5288C46.466 14.9348 45.9211 14.3601 45.3511 13.8244C41.1972 9.90469 35.7615 7.74776 30.045 7.74776C17.7557 7.74776 7.75739 17.7302 7.75739 30C7.75739 42.2698 17.7557 52.2522 30.045 52.2522C40.8524 52.2522 50.1361 44.4129 51.9962 33.8725H46.7301C47.0193 32.6288 47.1722 31.3325 47.1722 30C47.1722 28.6675 47.0193 27.3684 46.7274 26.1247H59.0278C59.6173 26.1247 60.0955 26.6022 60.0955 27.1907Z" fill="white"/>
<path d="M36.8069 36.4708C35.0998 38.2446 32.7031 39.355 30.0478 39.355C26.9838 39.355 24.259 37.8782 22.5463 35.5991C22.1431 35.0633 21.7984 34.4859 21.5175 33.8724H19.4879C17.4387 33.8724 15.7788 35.5297 15.7788 37.5756V39.4494C15.84 39.541 15.9011 39.6298 15.9623 39.7214C19.0597 44.1769 24.2173 47.1 30.0478 47.1C34.3212 47.1 38.2333 45.5288 41.2389 42.936C44.8728 39.7992 47.175 35.1633 47.175 30.0027C47.175 20.5727 39.49 12.9027 30.0478 12.9027C27.5705 12.9027 25.1543 13.4301 22.9383 14.4434C22.449 14.6682 22.2794 15.2789 22.5852 15.7231L26.1024 20.7976C26.3193 21.1113 26.7169 21.2501 27.0783 21.1279C28.0264 20.8115 29.0274 20.6477 30.0478 20.6477C35.2137 20.6477 39.4177 24.845 39.4177 30.0027C39.4177 32.5122 38.4223 34.7913 36.8041 36.4708" fill="url(#paint0_linear_55555_66160)"/>
<path d="M16.7993 26.1276H27.8569C28.185 26.1276 28.4908 26.2886 28.6744 26.5606L32.603 32.3319C33.0479 32.987 32.578 33.8725 31.7856 33.8725H21.5204H19.4907C17.4416 33.8725 15.7817 35.5298 15.7817 37.5757V39.4495C13.9744 36.7401 12.9207 33.4867 12.9207 29.9945C12.9207 27.8598 14.6612 26.1303 16.7993 26.1303V26.1276Z" fill="#FC9D74"/>
<path d="M109.812 43.83C111.425 43.83 112.734 42.5237 112.734 40.9124C112.734 39.3011 111.425 37.9949 109.812 37.9949C108.198 37.9949 106.889 39.3011 106.889 40.9124C106.889 42.5237 108.198 43.83 109.812 43.83Z" fill="url(#paint1_linear_55555_66160)"/>
<path d="M97.2833 18.4575C98.6263 19.7983 99.4576 21.6527 99.4576 23.7069C99.4576 26.705 97.6781 29.3116 95.1091 30.4942C94.4362 30.8106 93.7244 31.0077 92.9737 31.0855H92.7374V31.1243H79.4972V43.83H74.5564V16.209H91.9867C94.0414 16.209 95.8987 17.0362 97.2444 18.3798L97.2833 18.4575ZM93.0543 25.9943C93.9635 25.6001 94.5558 24.6924 94.5558 23.7069C94.5558 22.7992 94.0803 22.169 93.8051 21.8914C93.4881 21.575 92.8959 21.1808 92.0256 21.1808H79.4972V26.2719H92.0256C92.3815 26.2719 92.7374 26.1942 93.0543 26.036V25.9971V25.9943ZM123.922 43.83H118.389L115.859 38.8971L109.812 27.0603L103.764 38.8971L101.234 43.83H95.7013L98.2314 38.8971L109.812 16.2062L121.392 38.8971L123.922 43.83ZM120.208 43.83H120.286L120.208 43.9077V43.83ZM147.875 16.1674L137.165 30.0195L136.573 30.769V43.7911H131.632V30.8495L130.959 30.0195L120.249 16.1674H126.494L134.082 25.9943L141.669 16.1674H147.875ZM147.836 43.83H147.875V43.9077L147.836 43.83ZM174.197 38.9776L176.727 43.9105H171.194L168.664 38.9776L166.017 33.8087L165.898 33.5727C165.028 32.1514 163.487 31.2048 161.708 31.2048H156.767V43.9105H151.826V16.2867H169.295C171.35 16.2867 173.207 17.114 174.553 18.4575C175.896 19.7983 176.727 21.6527 176.727 23.7069C176.727 26.705 174.948 29.3116 172.379 30.4942C171.706 30.8106 170.994 31.0077 170.244 31.0855L174.195 38.9776H174.197ZM169.295 26.2719C169.651 26.2719 170.007 26.1942 170.324 26.036C171.233 25.6418 171.826 24.734 171.826 23.7458C171.826 22.838 171.35 22.2079 171.075 21.9303C170.758 21.6138 170.166 21.2196 169.295 21.2196H156.767V26.3108L169.295 26.2719ZM207.434 30.0195C207.434 37.634 201.228 43.83 193.602 43.83C185.975 43.83 179.769 37.634 179.769 30.0195C179.769 22.405 185.975 16.209 193.602 16.209C201.228 16.209 207.434 22.405 207.434 30.0195ZM202.493 30.0195C202.493 25.1254 198.501 21.1419 193.602 21.1419C188.703 21.1419 184.71 25.1282 184.71 30.0195C184.71 34.9108 188.703 38.8971 193.602 38.8971C198.501 38.8971 202.493 34.9108 202.493 30.0195ZM233.242 38.9387V43.8716H219.212C217.827 43.8716 216.523 43.5552 215.339 42.9639C213.601 42.095 212.177 40.6765 211.346 38.9387C210.754 37.7561 210.437 36.4514 210.437 35.0718V16.2479H215.378V35.5437C215.614 37.2787 216.999 38.6611 218.736 38.8971L233.242 38.9359V38.9387ZM259.997 38.9387V43.8716H245.968C244.583 43.8716 243.279 43.5552 242.094 42.9639C240.357 42.095 238.933 40.6765 238.102 38.9387C237.51 37.7561 237.193 36.4514 237.193 35.0718V16.2479H242.133V35.5437C242.37 37.2787 243.754 38.6611 245.492 38.8971L259.997 38.9359V38.9387Z" fill="white"/>
</g>
<defs>
<linearGradient id="paint0_linear_55555_66160" x1="17.4498" y1="27.782" x2="46.9136" y2="32.9863" gradientUnits="userSpaceOnUse">
<stop stop-color="#DB5A00"/>
<stop offset="0.12" stop-color="#FF9966"/>
</linearGradient>
<linearGradient id="paint1_linear_55555_66160" x1="109.834" y1="45.5736" x2="109.835" y2="40.2287" gradientUnits="userSpaceOnUse">
<stop stop-color="#DB6A42"/>
<stop offset="1" stop-color="#FF9966"/>
</linearGradient>
<clipPath id="clip0_55555_66160">
<rect width="260" height="60" fill="white"/>
</clipPath>
</defs>
</svg>
